<mxfile host="app.diagrams.net" modified="2024-03-12T01:47:46.386Z" agent="Mozilla/5.0 (Windows NT 10.0; Win64; x64) AppleWebKit/537.36 (KHTML, like Gecko) Chrome/122.0.0.0 Safari/537.36" etag="sxH9Qve_BDQy09DxkSoc" version="24.0.4" type="device">
  <diagram name="Page-1" id="CBJ8w1mlEdufqJvUcsKN">
    <mxGraphModel dx="2079" dy="530" grid="1" gridSize="10" guides="1" tooltips="1" connect="1" arrows="1" fold="1" page="1" pageScale="1" pageWidth="850" pageHeight="1100" math="0" shadow="0">
      <root>
        <mxCell id="0" />
        <mxCell id="1" parent="0" />
        <mxCell id="Hvx3YevdhoZoMWURl2Sn-1" value="Start" style="rounded=1;whiteSpace=wrap;html=1;" parent="1" vertex="1">
          <mxGeometry x="350" y="30" width="120" height="60" as="geometry" />
        </mxCell>
        <mxCell id="tv9-42OzY3ebnsGkNYKU-2" value="" style="edgeStyle=orthogonalEdgeStyle;rounded=0;orthogonalLoop=1;jettySize=auto;html=1;" edge="1" parent="1" source="Hvx3YevdhoZoMWURl2Sn-2" target="tv9-42OzY3ebnsGkNYKU-1">
          <mxGeometry relative="1" as="geometry" />
        </mxCell>
        <mxCell id="Hvx3YevdhoZoMWURl2Sn-2" value="int [] arr&amp;nbsp;&lt;div&gt;max=0&lt;/div&gt;&lt;div&gt;min=100&lt;/div&gt;" style="shape=parallelogram;perimeter=parallelogramPerimeter;whiteSpace=wrap;html=1;fixedSize=1;" parent="1" vertex="1">
          <mxGeometry x="350" y="120" width="120" height="60" as="geometry" />
        </mxCell>
        <mxCell id="Yfsd1-b0oNEKAQrjMB5r-1" value="&lt;div style=&quot;text-align: start;&quot;&gt;&lt;span style=&quot;background-color: initial; font-size: 14px; letter-spacing: 0.2px; text-wrap: wrap;&quot;&gt;&lt;font face=&quot;Roboto, Arial, sans-serif&quot; color=&quot;#3c4043&quot;&gt;Task1&lt;/font&gt;&lt;/span&gt;&lt;/div&gt;" style="text;html=1;align=center;verticalAlign=middle;resizable=0;points=[];autosize=1;strokeColor=none;fillColor=none;" parent="1" vertex="1">
          <mxGeometry x="65" y="100" width="60" height="30" as="geometry" />
        </mxCell>
        <mxCell id="tv9-42OzY3ebnsGkNYKU-4" value="" style="edgeStyle=orthogonalEdgeStyle;rounded=0;orthogonalLoop=1;jettySize=auto;html=1;" edge="1" parent="1" source="tv9-42OzY3ebnsGkNYKU-1" target="tv9-42OzY3ebnsGkNYKU-3">
          <mxGeometry relative="1" as="geometry" />
        </mxCell>
        <mxCell id="tv9-42OzY3ebnsGkNYKU-13" value="True" style="edgeLabel;html=1;align=center;verticalAlign=middle;resizable=0;points=[];" vertex="1" connectable="0" parent="tv9-42OzY3ebnsGkNYKU-4">
          <mxGeometry x="0.05" y="-1" relative="1" as="geometry">
            <mxPoint as="offset" />
          </mxGeometry>
        </mxCell>
        <mxCell id="tv9-42OzY3ebnsGkNYKU-12" value="" style="edgeStyle=orthogonalEdgeStyle;rounded=0;orthogonalLoop=1;jettySize=auto;html=1;" edge="1" parent="1" source="tv9-42OzY3ebnsGkNYKU-1">
          <mxGeometry relative="1" as="geometry">
            <mxPoint x="270" y="290" as="targetPoint" />
          </mxGeometry>
        </mxCell>
        <mxCell id="tv9-42OzY3ebnsGkNYKU-23" value="False" style="edgeLabel;html=1;align=center;verticalAlign=middle;resizable=0;points=[];" vertex="1" connectable="0" parent="tv9-42OzY3ebnsGkNYKU-12">
          <mxGeometry x="-0.3243" y="-4" relative="1" as="geometry">
            <mxPoint as="offset" />
          </mxGeometry>
        </mxCell>
        <mxCell id="tv9-42OzY3ebnsGkNYKU-1" value="i=0;i&amp;lt;arr.Lenght ; i++" style="shape=hexagon;perimeter=hexagonPerimeter2;whiteSpace=wrap;html=1;fixedSize=1;" vertex="1" parent="1">
          <mxGeometry x="350" y="250" width="120" height="80" as="geometry" />
        </mxCell>
        <mxCell id="tv9-42OzY3ebnsGkNYKU-9" value="" style="edgeStyle=orthogonalEdgeStyle;rounded=0;orthogonalLoop=1;jettySize=auto;html=1;" edge="1" parent="1" source="tv9-42OzY3ebnsGkNYKU-3">
          <mxGeometry relative="1" as="geometry">
            <mxPoint x="530" y="450" as="targetPoint" />
          </mxGeometry>
        </mxCell>
        <mxCell id="tv9-42OzY3ebnsGkNYKU-14" value="True" style="edgeLabel;html=1;align=center;verticalAlign=middle;resizable=0;points=[];" vertex="1" connectable="0" parent="tv9-42OzY3ebnsGkNYKU-9">
          <mxGeometry x="-0.2845" y="-4" relative="1" as="geometry">
            <mxPoint as="offset" />
          </mxGeometry>
        </mxCell>
        <mxCell id="tv9-42OzY3ebnsGkNYKU-3" value="arr[i]&amp;gt;max" style="rhombus;whiteSpace=wrap;html=1;" vertex="1" parent="1">
          <mxGeometry x="370" y="410" width="80" height="80" as="geometry" />
        </mxCell>
        <mxCell id="tv9-42OzY3ebnsGkNYKU-28" style="edgeStyle=orthogonalEdgeStyle;rounded=0;orthogonalLoop=1;jettySize=auto;html=1;entryX=1;entryY=0.5;entryDx=0;entryDy=0;" edge="1" parent="1" source="tv9-42OzY3ebnsGkNYKU-5" target="tv9-42OzY3ebnsGkNYKU-1">
          <mxGeometry relative="1" as="geometry">
            <Array as="points">
              <mxPoint x="580" y="290" />
            </Array>
          </mxGeometry>
        </mxCell>
        <mxCell id="tv9-42OzY3ebnsGkNYKU-5" value="max=arr[i]" style="whiteSpace=wrap;html=1;" vertex="1" parent="1">
          <mxGeometry x="530" y="420" width="120" height="60" as="geometry" />
        </mxCell>
        <mxCell id="tv9-42OzY3ebnsGkNYKU-20" value="" style="edgeStyle=orthogonalEdgeStyle;rounded=0;orthogonalLoop=1;jettySize=auto;html=1;" edge="1" parent="1" source="tv9-42OzY3ebnsGkNYKU-18" target="tv9-42OzY3ebnsGkNYKU-19">
          <mxGeometry relative="1" as="geometry" />
        </mxCell>
        <mxCell id="tv9-42OzY3ebnsGkNYKU-24" value="True" style="edgeLabel;html=1;align=center;verticalAlign=middle;resizable=0;points=[];" vertex="1" connectable="0" parent="tv9-42OzY3ebnsGkNYKU-20">
          <mxGeometry x="-0.22" y="3" relative="1" as="geometry">
            <mxPoint as="offset" />
          </mxGeometry>
        </mxCell>
        <mxCell id="tv9-42OzY3ebnsGkNYKU-31" value="" style="edgeStyle=orthogonalEdgeStyle;rounded=0;orthogonalLoop=1;jettySize=auto;html=1;" edge="1" parent="1" source="tv9-42OzY3ebnsGkNYKU-18" target="tv9-42OzY3ebnsGkNYKU-30">
          <mxGeometry relative="1" as="geometry" />
        </mxCell>
        <mxCell id="tv9-42OzY3ebnsGkNYKU-58" value="False" style="edgeLabel;html=1;align=center;verticalAlign=middle;resizable=0;points=[];" vertex="1" connectable="0" parent="tv9-42OzY3ebnsGkNYKU-31">
          <mxGeometry x="0.0631" y="-2" relative="1" as="geometry">
            <mxPoint as="offset" />
          </mxGeometry>
        </mxCell>
        <mxCell id="tv9-42OzY3ebnsGkNYKU-18" value="i=0;i&amp;gt;arr.Lenght ;i++" style="shape=hexagon;perimeter=hexagonPerimeter2;whiteSpace=wrap;html=1;fixedSize=1;" vertex="1" parent="1">
          <mxGeometry x="150" y="250" width="120" height="80" as="geometry" />
        </mxCell>
        <mxCell id="tv9-42OzY3ebnsGkNYKU-22" value="" style="edgeStyle=orthogonalEdgeStyle;rounded=0;orthogonalLoop=1;jettySize=auto;html=1;" edge="1" parent="1" source="tv9-42OzY3ebnsGkNYKU-19" target="tv9-42OzY3ebnsGkNYKU-21">
          <mxGeometry relative="1" as="geometry" />
        </mxCell>
        <mxCell id="tv9-42OzY3ebnsGkNYKU-25" value="True" style="edgeLabel;html=1;align=center;verticalAlign=middle;resizable=0;points=[];" vertex="1" connectable="0" parent="tv9-42OzY3ebnsGkNYKU-22">
          <mxGeometry x="0.2067" y="1" relative="1" as="geometry">
            <mxPoint as="offset" />
          </mxGeometry>
        </mxCell>
        <mxCell id="tv9-42OzY3ebnsGkNYKU-26" style="edgeStyle=orthogonalEdgeStyle;rounded=0;orthogonalLoop=1;jettySize=auto;html=1;entryX=1;entryY=0.75;entryDx=0;entryDy=0;" edge="1" parent="1" source="tv9-42OzY3ebnsGkNYKU-19" target="tv9-42OzY3ebnsGkNYKU-18">
          <mxGeometry relative="1" as="geometry">
            <Array as="points">
              <mxPoint x="261" y="450" />
            </Array>
          </mxGeometry>
        </mxCell>
        <mxCell id="tv9-42OzY3ebnsGkNYKU-19" value="arr[i]&amp;lt;min" style="rhombus;whiteSpace=wrap;html=1;" vertex="1" parent="1">
          <mxGeometry x="170" y="410" width="80" height="80" as="geometry" />
        </mxCell>
        <mxCell id="tv9-42OzY3ebnsGkNYKU-27" style="edgeStyle=orthogonalEdgeStyle;rounded=0;orthogonalLoop=1;jettySize=auto;html=1;entryX=0.183;entryY=1.048;entryDx=0;entryDy=0;entryPerimeter=0;" edge="1" parent="1" source="tv9-42OzY3ebnsGkNYKU-21" target="tv9-42OzY3ebnsGkNYKU-18">
          <mxGeometry relative="1" as="geometry">
            <mxPoint x="170" y="340" as="targetPoint" />
            <Array as="points">
              <mxPoint x="50" y="400" />
              <mxPoint x="171" y="400" />
            </Array>
          </mxGeometry>
        </mxCell>
        <mxCell id="tv9-42OzY3ebnsGkNYKU-21" value="min=arr[i]" style="whiteSpace=wrap;html=1;" vertex="1" parent="1">
          <mxGeometry x="-10" y="420" width="120" height="60" as="geometry" />
        </mxCell>
        <mxCell id="tv9-42OzY3ebnsGkNYKU-29" style="edgeStyle=orthogonalEdgeStyle;rounded=0;orthogonalLoop=1;jettySize=auto;html=1;entryX=0.167;entryY=1;entryDx=0;entryDy=0;entryPerimeter=0;" edge="1" parent="1" source="tv9-42OzY3ebnsGkNYKU-3" target="tv9-42OzY3ebnsGkNYKU-1">
          <mxGeometry relative="1" as="geometry">
            <Array as="points">
              <mxPoint x="350" y="450" />
              <mxPoint x="350" y="330" />
            </Array>
          </mxGeometry>
        </mxCell>
        <mxCell id="tv9-42OzY3ebnsGkNYKU-33" value="" style="edgeStyle=orthogonalEdgeStyle;rounded=0;orthogonalLoop=1;jettySize=auto;html=1;" edge="1" parent="1" source="tv9-42OzY3ebnsGkNYKU-30" target="tv9-42OzY3ebnsGkNYKU-32">
          <mxGeometry relative="1" as="geometry" />
        </mxCell>
        <mxCell id="tv9-42OzY3ebnsGkNYKU-30" value="min+max" style="shape=document;whiteSpace=wrap;html=1;boundedLbl=1;" vertex="1" parent="1">
          <mxGeometry x="-50" y="250" width="120" height="80" as="geometry" />
        </mxCell>
        <mxCell id="tv9-42OzY3ebnsGkNYKU-32" value="end" style="rounded=1;whiteSpace=wrap;html=1;" vertex="1" parent="1">
          <mxGeometry x="-250" y="260" width="120" height="60" as="geometry" />
        </mxCell>
        <mxCell id="tv9-42OzY3ebnsGkNYKU-36" value="" style="edgeStyle=orthogonalEdgeStyle;rounded=0;orthogonalLoop=1;jettySize=auto;html=1;" edge="1" parent="1" source="tv9-42OzY3ebnsGkNYKU-34" target="tv9-42OzY3ebnsGkNYKU-35">
          <mxGeometry relative="1" as="geometry" />
        </mxCell>
        <mxCell id="tv9-42OzY3ebnsGkNYKU-34" value="Start" style="rounded=1;whiteSpace=wrap;html=1;" vertex="1" parent="1">
          <mxGeometry x="1080" y="50" width="120" height="60" as="geometry" />
        </mxCell>
        <mxCell id="tv9-42OzY3ebnsGkNYKU-38" value="" style="edgeStyle=orthogonalEdgeStyle;rounded=0;orthogonalLoop=1;jettySize=auto;html=1;" edge="1" parent="1" source="tv9-42OzY3ebnsGkNYKU-35" target="tv9-42OzY3ebnsGkNYKU-37">
          <mxGeometry relative="1" as="geometry" />
        </mxCell>
        <mxCell id="tv9-42OzY3ebnsGkNYKU-35" value="int [] arr&lt;div&gt;sum=0&lt;/div&gt;" style="shape=parallelogram;perimeter=parallelogramPerimeter;whiteSpace=wrap;html=1;fixedSize=1;rounded=1;" vertex="1" parent="1">
          <mxGeometry x="1080" y="190" width="120" height="60" as="geometry" />
        </mxCell>
        <mxCell id="tv9-42OzY3ebnsGkNYKU-40" value="" style="edgeStyle=orthogonalEdgeStyle;rounded=0;orthogonalLoop=1;jettySize=auto;html=1;" edge="1" parent="1" source="tv9-42OzY3ebnsGkNYKU-37" target="tv9-42OzY3ebnsGkNYKU-39">
          <mxGeometry relative="1" as="geometry" />
        </mxCell>
        <mxCell id="tv9-42OzY3ebnsGkNYKU-60" value="True" style="edgeLabel;html=1;align=center;verticalAlign=middle;resizable=0;points=[];" vertex="1" connectable="0" parent="tv9-42OzY3ebnsGkNYKU-40">
          <mxGeometry x="-0.2976" relative="1" as="geometry">
            <mxPoint as="offset" />
          </mxGeometry>
        </mxCell>
        <mxCell id="tv9-42OzY3ebnsGkNYKU-53" value="" style="edgeStyle=orthogonalEdgeStyle;rounded=0;orthogonalLoop=1;jettySize=auto;html=1;" edge="1" parent="1" source="tv9-42OzY3ebnsGkNYKU-37" target="tv9-42OzY3ebnsGkNYKU-52">
          <mxGeometry relative="1" as="geometry" />
        </mxCell>
        <mxCell id="tv9-42OzY3ebnsGkNYKU-59" value="False" style="edgeLabel;html=1;align=center;verticalAlign=middle;resizable=0;points=[];" vertex="1" connectable="0" parent="tv9-42OzY3ebnsGkNYKU-53">
          <mxGeometry x="-0.0726" y="1" relative="1" as="geometry">
            <mxPoint as="offset" />
          </mxGeometry>
        </mxCell>
        <mxCell id="tv9-42OzY3ebnsGkNYKU-37" value="i=0;i&amp;lt;arr.Lenght;i++" style="shape=hexagon;perimeter=hexagonPerimeter2;whiteSpace=wrap;html=1;fixedSize=1;rounded=1;" vertex="1" parent="1">
          <mxGeometry x="1080" y="320" width="120" height="80" as="geometry" />
        </mxCell>
        <mxCell id="tv9-42OzY3ebnsGkNYKU-42" value="" style="edgeStyle=orthogonalEdgeStyle;rounded=0;orthogonalLoop=1;jettySize=auto;html=1;" edge="1" parent="1" source="tv9-42OzY3ebnsGkNYKU-39" target="tv9-42OzY3ebnsGkNYKU-41">
          <mxGeometry relative="1" as="geometry" />
        </mxCell>
        <mxCell id="tv9-42OzY3ebnsGkNYKU-48" value="True" style="edgeLabel;html=1;align=center;verticalAlign=middle;resizable=0;points=[];" vertex="1" connectable="0" parent="tv9-42OzY3ebnsGkNYKU-42">
          <mxGeometry x="-0.3477" y="1" relative="1" as="geometry">
            <mxPoint as="offset" />
          </mxGeometry>
        </mxCell>
        <mxCell id="tv9-42OzY3ebnsGkNYKU-43" style="edgeStyle=orthogonalEdgeStyle;rounded=0;orthogonalLoop=1;jettySize=auto;html=1;entryX=0;entryY=0.5;entryDx=0;entryDy=0;" edge="1" parent="1" source="tv9-42OzY3ebnsGkNYKU-39" target="tv9-42OzY3ebnsGkNYKU-37">
          <mxGeometry relative="1" as="geometry">
            <Array as="points">
              <mxPoint x="1060" y="520" />
              <mxPoint x="1060" y="360" />
            </Array>
          </mxGeometry>
        </mxCell>
        <mxCell id="tv9-42OzY3ebnsGkNYKU-47" value="False" style="edgeLabel;html=1;align=center;verticalAlign=middle;resizable=0;points=[];" vertex="1" connectable="0" parent="tv9-42OzY3ebnsGkNYKU-43">
          <mxGeometry x="-0.7744" y="-3" relative="1" as="geometry">
            <mxPoint as="offset" />
          </mxGeometry>
        </mxCell>
        <mxCell id="tv9-42OzY3ebnsGkNYKU-39" value="arr[i]%2!=0" style="rhombus;whiteSpace=wrap;html=1;rounded=1;" vertex="1" parent="1">
          <mxGeometry x="1100" y="480" width="80" height="80" as="geometry" />
        </mxCell>
        <mxCell id="tv9-42OzY3ebnsGkNYKU-45" style="edgeStyle=orthogonalEdgeStyle;rounded=0;orthogonalLoop=1;jettySize=auto;html=1;entryX=0;entryY=0.5;entryDx=0;entryDy=0;" edge="1" parent="1" source="tv9-42OzY3ebnsGkNYKU-41" target="tv9-42OzY3ebnsGkNYKU-44">
          <mxGeometry relative="1" as="geometry" />
        </mxCell>
        <mxCell id="tv9-42OzY3ebnsGkNYKU-49" value="True" style="edgeLabel;html=1;align=center;verticalAlign=middle;resizable=0;points=[];" vertex="1" connectable="0" parent="tv9-42OzY3ebnsGkNYKU-45">
          <mxGeometry x="-0.0655" y="1" relative="1" as="geometry">
            <mxPoint as="offset" />
          </mxGeometry>
        </mxCell>
        <mxCell id="tv9-42OzY3ebnsGkNYKU-46" style="edgeStyle=orthogonalEdgeStyle;rounded=0;orthogonalLoop=1;jettySize=auto;html=1;entryX=1;entryY=0.5;entryDx=0;entryDy=0;" edge="1" parent="1" source="tv9-42OzY3ebnsGkNYKU-41" target="tv9-42OzY3ebnsGkNYKU-37">
          <mxGeometry relative="1" as="geometry">
            <Array as="points">
              <mxPoint x="1300" y="360" />
            </Array>
          </mxGeometry>
        </mxCell>
        <mxCell id="tv9-42OzY3ebnsGkNYKU-50" value="False" style="edgeLabel;html=1;align=center;verticalAlign=middle;resizable=0;points=[];" vertex="1" connectable="0" parent="tv9-42OzY3ebnsGkNYKU-46">
          <mxGeometry x="-0.6281" y="-3" relative="1" as="geometry">
            <mxPoint as="offset" />
          </mxGeometry>
        </mxCell>
        <mxCell id="tv9-42OzY3ebnsGkNYKU-41" value="arr[i]%3==0" style="rhombus;whiteSpace=wrap;html=1;rounded=1;" vertex="1" parent="1">
          <mxGeometry x="1260" y="480" width="80" height="80" as="geometry" />
        </mxCell>
        <mxCell id="tv9-42OzY3ebnsGkNYKU-44" value="sum+=i" style="rounded=0;whiteSpace=wrap;html=1;" vertex="1" parent="1">
          <mxGeometry x="1390" y="490" width="120" height="60" as="geometry" />
        </mxCell>
        <mxCell id="tv9-42OzY3ebnsGkNYKU-51" style="edgeStyle=orthogonalEdgeStyle;rounded=0;orthogonalLoop=1;jettySize=auto;html=1;entryX=0.855;entryY=-0.002;entryDx=0;entryDy=0;entryPerimeter=0;" edge="1" parent="1" source="tv9-42OzY3ebnsGkNYKU-44" target="tv9-42OzY3ebnsGkNYKU-37">
          <mxGeometry relative="1" as="geometry">
            <Array as="points">
              <mxPoint x="1440" y="320" />
            </Array>
          </mxGeometry>
        </mxCell>
        <mxCell id="tv9-42OzY3ebnsGkNYKU-55" value="" style="edgeStyle=orthogonalEdgeStyle;rounded=0;orthogonalLoop=1;jettySize=auto;html=1;" edge="1" parent="1" source="tv9-42OzY3ebnsGkNYKU-52" target="tv9-42OzY3ebnsGkNYKU-54">
          <mxGeometry relative="1" as="geometry" />
        </mxCell>
        <mxCell id="tv9-42OzY3ebnsGkNYKU-52" value="sum" style="shape=document;whiteSpace=wrap;html=1;boundedLbl=1;rounded=1;" vertex="1" parent="1">
          <mxGeometry x="880" y="320" width="120" height="80" as="geometry" />
        </mxCell>
        <mxCell id="tv9-42OzY3ebnsGkNYKU-54" value="end" style="rounded=1;whiteSpace=wrap;html=1;" vertex="1" parent="1">
          <mxGeometry x="680" y="330" width="120" height="60" as="geometry" />
        </mxCell>
        <mxCell id="tv9-42OzY3ebnsGkNYKU-56" value="Task 2" style="text;html=1;align=center;verticalAlign=middle;resizable=0;points=[];autosize=1;strokeColor=none;fillColor=none;" vertex="1" parent="1">
          <mxGeometry x="930" y="38" width="60" height="30" as="geometry" />
        </mxCell>
        <mxCell id="tv9-42OzY3ebnsGkNYKU-66" value="" style="edgeStyle=orthogonalEdgeStyle;rounded=0;orthogonalLoop=1;jettySize=auto;html=1;" edge="1" parent="1" source="tv9-42OzY3ebnsGkNYKU-57" target="tv9-42OzY3ebnsGkNYKU-65">
          <mxGeometry relative="1" as="geometry" />
        </mxCell>
        <mxCell id="tv9-42OzY3ebnsGkNYKU-57" value="Start" style="rounded=1;whiteSpace=wrap;html=1;" vertex="1" parent="1">
          <mxGeometry x="2000" y="38" width="120" height="60" as="geometry" />
        </mxCell>
        <mxCell id="tv9-42OzY3ebnsGkNYKU-68" value="" style="edgeStyle=orthogonalEdgeStyle;rounded=0;orthogonalLoop=1;jettySize=auto;html=1;" edge="1" parent="1" source="tv9-42OzY3ebnsGkNYKU-65" target="tv9-42OzY3ebnsGkNYKU-67">
          <mxGeometry relative="1" as="geometry" />
        </mxCell>
        <mxCell id="tv9-42OzY3ebnsGkNYKU-65" value="int num&lt;div&gt;arr[i]&lt;/div&gt;&lt;div&gt;int m&lt;/div&gt;" style="shape=parallelogram;perimeter=parallelogramPerimeter;whiteSpace=wrap;html=1;fixedSize=1;rounded=1;arcSize=0;" vertex="1" parent="1">
          <mxGeometry x="2000" y="178" width="120" height="60" as="geometry" />
        </mxCell>
        <mxCell id="tv9-42OzY3ebnsGkNYKU-70" value="" style="edgeStyle=orthogonalEdgeStyle;rounded=0;orthogonalLoop=1;jettySize=auto;html=1;" edge="1" parent="1" source="tv9-42OzY3ebnsGkNYKU-67" target="tv9-42OzY3ebnsGkNYKU-69">
          <mxGeometry relative="1" as="geometry" />
        </mxCell>
        <mxCell id="tv9-42OzY3ebnsGkNYKU-73" value="False" style="edgeLabel;html=1;align=center;verticalAlign=middle;resizable=0;points=[];" vertex="1" connectable="0" parent="tv9-42OzY3ebnsGkNYKU-70">
          <mxGeometry x="0.0778" y="3" relative="1" as="geometry">
            <mxPoint as="offset" />
          </mxGeometry>
        </mxCell>
        <mxCell id="tv9-42OzY3ebnsGkNYKU-67" value="num&amp;lt;=1" style="rhombus;whiteSpace=wrap;html=1;rounded=1;arcSize=0;" vertex="1" parent="1">
          <mxGeometry x="2020" y="308" width="80" height="80" as="geometry" />
        </mxCell>
        <mxCell id="tv9-42OzY3ebnsGkNYKU-72" value="" style="edgeStyle=orthogonalEdgeStyle;rounded=0;orthogonalLoop=1;jettySize=auto;html=1;" edge="1" parent="1" source="tv9-42OzY3ebnsGkNYKU-69" target="tv9-42OzY3ebnsGkNYKU-71">
          <mxGeometry relative="1" as="geometry" />
        </mxCell>
        <mxCell id="tv9-42OzY3ebnsGkNYKU-69" value="i=2; i*i&amp;lt;=num;i++" style="shape=hexagon;perimeter=hexagonPerimeter2;whiteSpace=wrap;html=1;fixedSize=1;rounded=1;arcSize=0;" vertex="1" parent="1">
          <mxGeometry x="1840" y="308" width="120" height="80" as="geometry" />
        </mxCell>
        <mxCell id="tv9-42OzY3ebnsGkNYKU-71" value="num%i==0" style="rhombus;whiteSpace=wrap;html=1;rounded=1;arcSize=0;" vertex="1" parent="1">
          <mxGeometry x="1660" y="308" width="80" height="80" as="geometry" />
        </mxCell>
        <mxCell id="tv9-42OzY3ebnsGkNYKU-74" value="Task 3" style="text;html=1;align=center;verticalAlign=middle;resizable=0;points=[];autosize=1;strokeColor=none;fillColor=none;" vertex="1" parent="1">
          <mxGeometry x="1800" y="28" width="60" height="30" as="geometry" />
        </mxCell>
      </root>
    </mxGraphModel>
  </diagram>
</mxfile>
